<svg xmlns="http://www.w3.org/2000/svg" xmlns:xlink="http://www.w3.org/1999/xlink" viewBox="0 0 1920 1080">
  <defs>
    <style>
      .cls-1 {
        fill: none;
      }

      .cls-2 {
        clip-path: url(#clip-path);
      }

      .cls-3 {
        fill: #d7eef9;
      }

      .cls-4 {
        fill: #80c5f9;
      }

      .cls-5 {
        fill: #bde4f9;
      }

      .cls-6 {
        fill: #d1e6f7;
      }

      .cls-7 {
        fill: #ebf7ff;
      }

      .cls-8 {
        fill: #86bfea;
      }

      .cls-9 {
        fill: #2b5882;
      }

      .cls-10 {
        fill: #3d7bae;
      }

      .cls-11 {
        fill: #4e87bc;
      }

      .cls-12 {
        fill: #1f5a92;
      }

      .cls-13 {
        fill: #2068a3;
      }
    </style>
    <clipPath id="clip-path">
      <rect class="cls-1" width="1920" height="1080"/>
    </clipPath>
  </defs>
  <g id="Layer_2" data-name="Layer 2">
    <g id="Layer_1-2" data-name="Layer 1">
      <g class="cls-2">
        <rect class="cls-3" width="1920" height="1080"/>
        <path class="cls-4" d="M2048.1523,358.7217c-2.02-1.1185-651.7-465.79-654.2361-466.8223-1.2265-.1829-361.9367,372.7755-361.9367,372.7755L384.5556-117.18-191.0483,276.9153S-468.6408,935.4181-463.3074,935.1108c.6783-1.136,385.5045-123.8666,384.7183-126.2963,506.5772-1.3607,1632.5691,2.1771,2127.1653-.9982C2047.977,760.2772,2049.5187,408.46,2048.1523,358.7217Zm-1.5742,29.7178c-1.8876,1.8347-312.5214,299.2264-314.5827,301.2094l-499.7622,115.41c203.4691-105.48,611.38-317.0489,814.3449-422.2616ZM1027.3074,267.1832-75.4629,804.6807,376.0654,300.2754Zm199.7307,537.6313c60.8019-149.1916,186.0306-456.4687,246.2053-604.12,74.8465,47.1245,226.9386,142.8844,301.24,189.6659C1720.86,430.957,1240.1515,794.8864,1227.0381,804.8145ZM1289.87,354.4086,1470.3135,202.584,1226.8582,799.9564Zm-256.0846-86.8552,254.042,87.0143-63.5105,449.073C1178.5614,674.9013,1033.7856,267.5534,1033.7856,267.5534Zm738.2377,118.8939L1473.6372,198.5781,1396.18-102.5773ZM1469.4069,200.7327,1288.7227,352.76c-57.8265-19.8065-252.3848-86.4469-252.3848-86.4469ZM74.1655,502.0307c5.8564-12.4646,309.093-613.821,309.093-613.821l-8.6494,410.55ZM369.4539,304.6622-75.391,801.601,78.2766,503.8936ZM-72.1995,805.3152,1029.2178,268.4776c-56.5607,83.3957-193.694,285.5914-248.615,366.5693ZM1031.8682,268.1318s147.5742,415.221,191.196,537.9579l-440.33-170.621Zm1014.71,106.0889v6.34c-202.4972,104.9248-609.0536,315.8364-811.8525,420.9532,158.2821-119.8408,384.71-291.2662,541.8747-410.2455C1778.3163,391.1638,2045.1228,374.301,2046.5781,374.2207ZM1471.5232,198.39l-436.59,66.1136L1393.457-105.1318ZM376.6208,298.2446c1.8168-86.2453,8.6951-412.7221,8.6951-412.7221l643.4585,379.5839Zm1669.9573,92.97V764.2217l-312.0713-74.208C1735.1848,689.3617,2045.9575,391.8173,2046.5781,391.2148Zm0-31.1543v12.1567c-1.021.0518-268.6377,16.9665-269.8659,17.04L1398.9045-102.3436C1400.8545-100.9763,2044.7613,358.8361,2046.5781,360.0605ZM381.6719-113.1465S12.0535,610.5736-79.2273,804.7466L-188.936,277.4312ZM-461.8545,932.5381l271.5024-652.0889L-80.7295,808.33ZM781.1108,636.9854c91.1132,35.3047,351.1851,136.0781,438.2776,169.8251l-1288.883.004ZM2046.5781,806.8145H1233.5223l498.9621-115.2256,314.0937,74.6884Z"/>
        <g>
          <polygon class="cls-5" points="2.268 1082.399 0 1082.297 0 1016.958 2.268 1017.542 298.958 1096.447 2.268 1082.399"/>
          <polygon class="cls-5" points="1923.256 665.105 2037.085 1072.104 1592.775 684.039 1923.256 665.105"/>
          <polygon class="cls-6" points="2.268 1019.143 0 1018.559 0 887.068 2.268 888.668 298.958 1096.447 2.268 1019.143"/>
          <polygon class="cls-6" points="0 742.672 0 462.239 2.268 467.599 122.902 752.224 2.268 742.85 0 742.672"/>
          <polygon class="cls-7" points="0 887.068 0 742.672 2.268 742.85 122.902 752.224 298.958 1096.447 2.268 888.668 0 887.068"/>
          <polygon class="cls-6" points="298.967 1096.459 435.893 984.424 122.92 752.235 298.967 1096.459"/>
          <polygon class="cls-8" points="435.893 984.424 1134.493 1227.979 298.967 1096.459 435.893 984.424"/>
          <polygon class="cls-8" points="0 462.239 0 437.647 2.268 439.68 195.592 612.604 122.902 752.224 2.268 467.599 0 462.239"/>
          <polygon class="cls-5" points="0 437.647 0 429.341 2.268 430.23 625.926 679.162 195.592 612.604 2.268 439.68 0 437.647"/>
          <polygon class="cls-7" points="195.574 612.597 435.893 984.424 122.92 752.235 195.574 612.597"/>
          <polygon class="cls-6" points="435.893 984.424 625.912 679.168 195.574 612.597 435.893 984.424"/>
          <polygon class="cls-8" points="435.893 984.424 625.912 679.168 726.51 948.702 435.893 984.424"/>
          <polygon class="cls-5" points="726.51 948.702 1135.89 1227.979 435.893 984.424 726.51 948.702"/>
          <polygon class="cls-7" points="726.51 948.702 972.418 479.453 625.912 679.168 726.51 948.702"/>
          <polygon class="cls-7" points="2037.085 1072.104 1321.718 700.276 1425.111 995.79 2037.085 1072.104"/>
          <polygon class="cls-8" points="1321.718 700.276 1592.775 684.039 972.418 479.453 1321.718 700.276"/>
          <polygon class="cls-6" points="2037.085 1072.104 1592.775 684.039 1321.718 700.276 2037.085 1072.104"/>
          <polygon class="cls-7" points="1425.111 995.79 1031.1 737.621 972.418 479.453 1425.111 995.79"/>
          <polygon class="cls-5" points="1425.111 995.79 1321.718 700.276 972.418 479.453 1425.111 995.79"/>
          <polygon class="cls-6" points="1425.111 995.79 1134.493 1227.979 1031.1 737.621 1425.111 995.79"/>
          <polygon class="cls-7" points="1134.493 1226.355 726.51 948.702 1031.1 737.621 1134.493 1226.355"/>
          <polygon class="cls-6" points="1031.1 737.621 726.51 948.702 972.418 479.453 1031.1 737.621"/>
          <polygon class="cls-8" points="2037.085 1072.104 1134.493 1227.979 1419.049 994.166 2037.085 1072.104"/>
        </g>
        <g>
          <polygon class="cls-9" points="1020.981 584.574 848.767 922.857 1016.241 809.549 1020.981 584.574"/>
          <polygon class="cls-10" points="848.767 922.857 769.769 1084.884 1016.241 809.549 848.767 922.857"/>
          <polygon class="cls-11" points="1020.985 584.579 865.335 893.459 769.769 1084.884 709.99 797.556 709.97 797.467 1020.985 584.579"/>
          <polygon class="cls-9" points="561.851 1153.295 709.97 797.545 709.99 797.556 769.792 1085.528 561.851 1153.295"/>
          <polygon class="cls-11" points="1921.532 858.045 1921.532 1061.967 1750.927 1021.398 1808.943 965.851 1920.25 859.278 1921.532 858.045"/>
          <polygon class="cls-9" points="1921.532 853.883 1921.532 858.045 1920.25 859.278 1808.943 965.851 1750.927 1021.398 1476.011 1084.884 1705.576 965.851 1920.25 854.525 1921.532 853.883"/>
          <polygon class="cls-12" points="1921.532 1061.967 1921.532 1084.884 1476.011 1084.884 1750.927 1021.398 1921.532 1061.967"/>
          <polygon class="cls-12" points="1921.532 849.541 1921.532 853.883 1920.25 854.525 1705.576 965.851 1476.011 1084.884 1633.231 965.851 1774.615 858.816 1920.25 849.618 1921.532 849.541"/>
          <polygon class="cls-12" points="1921.532 842.167 1921.532 849.541 1920.25 849.618 1774.615 858.816 1567.635 589.507 1920.25 841.268 1921.532 842.167"/>
          <polygon class="cls-10" points="1774.616 858.813 1610.302 755.358 1567.643 589.501 1774.616 858.813"/>
          <polygon class="cls-11" points="1610.302 755.358 1371.729 791.485 1567.643 589.501 1610.302 755.358"/>
          <polygon class="cls-9" points="1610.302 755.358 1476.006 1084.882 1774.616 858.813 1610.302 755.358"/>
          <polygon class="cls-10" points="1610.302 755.358 1510.765 839.107 1476.006 1084.882 1610.302 755.358"/>
          <polygon class="cls-13" points="1610.302 755.358 1510.765 839.107 1371.729 791.485 1610.302 755.358"/>
          <polygon class="cls-11" points="1371.729 791.485 1476.006 1084.882 1510.765 839.107 1371.729 791.485"/>
          <polygon class="cls-12" points="1371.729 791.485 769.769 1084.884 1235.854 991.827 1371.729 791.485"/>
          <polygon class="cls-13" points="1235.854 991.827 1476.006 1084.882 1371.729 791.485 1235.854 991.827"/>
          <polygon class="cls-10" points="1235.854 991.827 769.769 1084.884 1476.006 1084.882 1235.854 991.827"/>
          <polygon class="cls-13" points="1371.729 791.485 769.769 1084.884 1016.241 809.549 1371.729 791.485"/>
          <polygon class="cls-11" points="1371.729 791.485 1020.981 584.574 1016.241 809.549 1371.729 791.485"/>
        </g>
      </g>
    </g>
  </g>
</svg>
