<svg xmlns="http://www.w3.org/2000/svg" version="1.1" xmlns:xlink="http://www.w3.org/1999/xlink" xmlns:svgjs="http://svgjs.dev/svgjs" width="1440" height="560" preserveAspectRatio="none" viewBox="0 0 1440 560"><g mask="url(&quot;#SvgjsMask1242&quot;)" fill="none"><rect width="1440" height="560" x="0" y="0" fill="#0e2a47"></rect><path d="M118.32 324.87L183.28 362.37L183.28 437.37L118.32 474.87L53.37 437.37L53.37 362.37zM53.37 437.37L118.32 474.87L118.32 549.87L53.37 587.37L-11.58 549.87L-11.58 474.87zM183.28 -12.63L248.23 24.87L248.23 99.87L183.28 137.37L118.32 99.87L118.32 24.87zM248.23 324.87L313.19 362.37L313.19 437.37L248.23 474.87L183.28 437.37L183.28 362.37zM183.28 437.37L248.23 474.87L248.23 549.87L183.28 587.37L118.32 549.87L118.32 474.87zM248.23 549.87L313.19 587.37L313.19 662.37L248.23 699.87L183.28 662.37L183.28 587.37zM443.09 212.37L508.05 249.87L508.05 324.87L443.09 362.37L378.14 324.87L378.14 249.87zM573 212.37L637.95 249.87L637.95 324.87L573 362.37L508.05 324.87L508.05 249.87zM767.86 549.87L832.82 587.37L832.82 662.37L767.86 699.87L702.91 662.37L702.91 587.37zM1352.44 -12.63L1417.4 24.87L1417.4 99.87L1352.44 137.37L1287.49 99.87L1287.49 24.87zM1352.44 437.37L1417.4 474.87L1417.4 549.87L1352.44 587.37L1287.49 549.87L1287.49 474.87zM1417.4 549.87L1482.35 587.37L1482.35 662.37L1417.4 699.87L1352.44 662.37L1352.44 587.37zM1482.35 -12.63L1547.31 24.87L1547.31 99.87L1482.35 137.37L1417.4 99.87L1417.4 24.87zM1547.31 324.87L1612.26 362.37L1612.26 437.37L1547.31 474.87L1482.35 437.37L1482.35 362.37z" stroke="#03305d" stroke-width="2"></path><path d="M110.82 324.87 a7.5 7.5 0 1 0 15 0 a7.5 7.5 0 1 0 -15 0zM175.78 362.37 a7.5 7.5 0 1 0 15 0 a7.5 7.5 0 1 0 -15 0zM175.78 437.37 a7.5 7.5 0 1 0 15 0 a7.5 7.5 0 1 0 -15 0zM110.82 474.87 a7.5 7.5 0 1 0 15 0 a7.5 7.5 0 1 0 -15 0zM45.87 437.37 a7.5 7.5 0 1 0 15 0 a7.5 7.5 0 1 0 -15 0zM45.87 362.37 a7.5 7.5 0 1 0 15 0 a7.5 7.5 0 1 0 -15 0zM110.82 549.87 a7.5 7.5 0 1 0 15 0 a7.5 7.5 0 1 0 -15 0zM45.87 587.37 a7.5 7.5 0 1 0 15 0 a7.5 7.5 0 1 0 -15 0zM-19.08 549.87 a7.5 7.5 0 1 0 15 0 a7.5 7.5 0 1 0 -15 0zM-19.08 474.87 a7.5 7.5 0 1 0 15 0 a7.5 7.5 0 1 0 -15 0zM175.78 -12.63 a7.5 7.5 0 1 0 15 0 a7.5 7.5 0 1 0 -15 0zM240.73 24.87 a7.5 7.5 0 1 0 15 0 a7.5 7.5 0 1 0 -15 0zM240.73 99.87 a7.5 7.5 0 1 0 15 0 a7.5 7.5 0 1 0 -15 0zM175.78 137.37 a7.5 7.5 0 1 0 15 0 a7.5 7.5 0 1 0 -15 0zM110.82 99.87 a7.5 7.5 0 1 0 15 0 a7.5 7.5 0 1 0 -15 0zM110.82 24.87 a7.5 7.5 0 1 0 15 0 a7.5 7.5 0 1 0 -15 0zM240.73 324.87 a7.5 7.5 0 1 0 15 0 a7.5 7.5 0 1 0 -15 0zM305.69 362.37 a7.5 7.5 0 1 0 15 0 a7.5 7.5 0 1 0 -15 0zM305.69 437.37 a7.5 7.5 0 1 0 15 0 a7.5 7.5 0 1 0 -15 0zM240.73 474.87 a7.5 7.5 0 1 0 15 0 a7.5 7.5 0 1 0 -15 0zM240.73 549.87 a7.5 7.5 0 1 0 15 0 a7.5 7.5 0 1 0 -15 0zM175.78 587.37 a7.5 7.5 0 1 0 15 0 a7.5 7.5 0 1 0 -15 0zM305.69 587.37 a7.5 7.5 0 1 0 15 0 a7.5 7.5 0 1 0 -15 0zM305.69 662.37 a7.5 7.5 0 1 0 15 0 a7.5 7.5 0 1 0 -15 0zM240.73 699.87 a7.5 7.5 0 1 0 15 0 a7.5 7.5 0 1 0 -15 0zM175.78 662.37 a7.5 7.5 0 1 0 15 0 a7.5 7.5 0 1 0 -15 0zM435.59 212.37 a7.5 7.5 0 1 0 15 0 a7.5 7.5 0 1 0 -15 0zM500.55 249.87 a7.5 7.5 0 1 0 15 0 a7.5 7.5 0 1 0 -15 0zM500.55 324.87 a7.5 7.5 0 1 0 15 0 a7.5 7.5 0 1 0 -15 0zM435.59 362.37 a7.5 7.5 0 1 0 15 0 a7.5 7.5 0 1 0 -15 0zM370.64 324.87 a7.5 7.5 0 1 0 15 0 a7.5 7.5 0 1 0 -15 0zM370.64 249.87 a7.5 7.5 0 1 0 15 0 a7.5 7.5 0 1 0 -15 0zM565.5 212.37 a7.5 7.5 0 1 0 15 0 a7.5 7.5 0 1 0 -15 0zM630.45 249.87 a7.5 7.5 0 1 0 15 0 a7.5 7.5 0 1 0 -15 0zM630.45 324.87 a7.5 7.5 0 1 0 15 0 a7.5 7.5 0 1 0 -15 0zM565.5 362.37 a7.5 7.5 0 1 0 15 0 a7.5 7.5 0 1 0 -15 0zM760.36 549.87 a7.5 7.5 0 1 0 15 0 a7.5 7.5 0 1 0 -15 0zM825.32 587.37 a7.5 7.5 0 1 0 15 0 a7.5 7.5 0 1 0 -15 0zM825.32 662.37 a7.5 7.5 0 1 0 15 0 a7.5 7.5 0 1 0 -15 0zM760.36 699.87 a7.5 7.5 0 1 0 15 0 a7.5 7.5 0 1 0 -15 0zM695.41 662.37 a7.5 7.5 0 1 0 15 0 a7.5 7.5 0 1 0 -15 0zM695.41 587.37 a7.5 7.5 0 1 0 15 0 a7.5 7.5 0 1 0 -15 0zM1344.94 -12.63 a7.5 7.5 0 1 0 15 0 a7.5 7.5 0 1 0 -15 0zM1409.9 24.87 a7.5 7.5 0 1 0 15 0 a7.5 7.5 0 1 0 -15 0zM1409.9 99.87 a7.5 7.5 0 1 0 15 0 a7.5 7.5 0 1 0 -15 0zM1344.94 137.37 a7.5 7.5 0 1 0 15 0 a7.5 7.5 0 1 0 -15 0zM1279.99 99.87 a7.5 7.5 0 1 0 15 0 a7.5 7.5 0 1 0 -15 0zM1279.99 24.87 a7.5 7.5 0 1 0 15 0 a7.5 7.5 0 1 0 -15 0zM1344.94 437.37 a7.5 7.5 0 1 0 15 0 a7.5 7.5 0 1 0 -15 0zM1409.9 474.87 a7.5 7.5 0 1 0 15 0 a7.5 7.5 0 1 0 -15 0zM1409.9 549.87 a7.5 7.5 0 1 0 15 0 a7.5 7.5 0 1 0 -15 0zM1344.94 587.37 a7.5 7.5 0 1 0 15 0 a7.5 7.5 0 1 0 -15 0zM1279.99 549.87 a7.5 7.5 0 1 0 15 0 a7.5 7.5 0 1 0 -15 0zM1279.99 474.87 a7.5 7.5 0 1 0 15 0 a7.5 7.5 0 1 0 -15 0zM1474.85 587.37 a7.5 7.5 0 1 0 15 0 a7.5 7.5 0 1 0 -15 0zM1474.85 662.37 a7.5 7.5 0 1 0 15 0 a7.5 7.5 0 1 0 -15 0zM1409.9 699.87 a7.5 7.5 0 1 0 15 0 a7.5 7.5 0 1 0 -15 0zM1344.94 662.37 a7.5 7.5 0 1 0 15 0 a7.5 7.5 0 1 0 -15 0zM1474.85 -12.63 a7.5 7.5 0 1 0 15 0 a7.5 7.5 0 1 0 -15 0zM1539.81 24.87 a7.5 7.5 0 1 0 15 0 a7.5 7.5 0 1 0 -15 0zM1539.81 99.87 a7.5 7.5 0 1 0 15 0 a7.5 7.5 0 1 0 -15 0zM1474.85 137.37 a7.5 7.5 0 1 0 15 0 a7.5 7.5 0 1 0 -15 0zM1539.81 324.87 a7.5 7.5 0 1 0 15 0 a7.5 7.5 0 1 0 -15 0zM1604.76 362.37 a7.5 7.5 0 1 0 15 0 a7.5 7.5 0 1 0 -15 0zM1604.76 437.37 a7.5 7.5 0 1 0 15 0 a7.5 7.5 0 1 0 -15 0zM1539.81 474.87 a7.5 7.5 0 1 0 15 0 a7.5 7.5 0 1 0 -15 0zM1474.85 437.37 a7.5 7.5 0 1 0 15 0 a7.5 7.5 0 1 0 -15 0zM1474.85 362.37 a7.5 7.5 0 1 0 15 0 a7.5 7.5 0 1 0 -15 0z" fill="#03305d"></path><path d="M17.93 -49.49L61.23 -24.49L61.23 25.51L17.93 50.51L-25.37 25.51L-25.37 -24.49zM61.23 25.51L104.53 50.51L104.53 100.51L61.23 125.51L17.93 100.51L17.93 50.51zM17.93 100.51L61.23 125.51L61.23 175.51L17.93 200.51L-25.37 175.51L-25.37 125.51zM17.93 250.51L61.23 275.51L61.23 325.51L17.93 350.51L-25.37 325.51L-25.37 275.51zM61.23 475.51L104.53 500.51L104.53 550.51L61.23 575.51L17.93 550.51L17.93 500.51zM104.53 -49.49L147.84 -24.49L147.84 25.51L104.53 50.51L61.23 25.51L61.23 -24.49zM104.53 100.51L147.84 125.51L147.84 175.51L104.53 200.51L61.23 175.51L61.23 125.51zM104.53 400.51L147.84 425.51L147.84 475.51L104.53 500.51L61.23 475.51L61.23 425.51zM191.14 -49.49L234.44 -24.49L234.44 25.51L191.14 50.51L147.84 25.51L147.84 -24.49zM191.14 400.51L234.44 425.51L234.44 475.51L191.14 500.51L147.84 475.51L147.84 425.51zM234.44 475.51L277.75 500.51L277.75 550.51L234.44 575.51L191.14 550.51L191.14 500.51zM277.75 -49.49L321.05 -24.49L321.05 25.51L277.75 50.51L234.44 25.51L234.44 -24.49zM321.05 325.51L364.35 350.51L364.35 400.51L321.05 425.51L277.75 400.51L277.75 350.51zM277.75 400.51L321.05 425.51L321.05 475.51L277.75 500.51L234.44 475.51L234.44 425.51zM364.35 100.51L407.65 125.51L407.65 175.51L364.35 200.51L321.05 175.51L321.05 125.51zM364.35 250.51L407.65 275.51L407.65 325.51L364.35 350.51L321.05 325.51L321.05 275.51zM364.35 400.51L407.65 425.51L407.65 475.51L364.35 500.51L321.05 475.51L321.05 425.51zM494.26 175.51L537.56 200.51L537.56 250.51L494.26 275.51L450.96 250.51L450.96 200.51zM450.96 250.51L494.26 275.51L494.26 325.51L450.96 350.51L407.65 325.51L407.65 275.51zM537.56 -49.49L580.86 -24.49L580.86 25.51L537.56 50.51L494.26 25.51L494.26 -24.49zM537.56 100.51L580.86 125.51L580.86 175.51L537.56 200.51L494.26 175.51L494.26 125.51zM580.86 175.51L624.16 200.51L624.16 250.51L580.86 275.51L537.56 250.51L537.56 200.51zM580.86 475.51L624.16 500.51L624.16 550.51L580.86 575.51L537.56 550.51L537.56 500.51zM667.47 325.51L710.77 350.51L710.77 400.51L667.47 425.51L624.16 400.51L624.16 350.51zM710.77 -49.49L754.07 -24.49L754.07 25.51L710.77 50.51L667.47 25.51L667.47 -24.49zM754.07 325.51L797.38 350.51L797.38 400.51L754.07 425.51L710.77 400.51L710.77 350.51zM840.68 25.51L883.98 50.51L883.98 100.51L840.68 125.51L797.38 100.51L797.38 50.51zM797.38 100.51L840.68 125.51L840.68 175.51L797.38 200.51L754.07 175.51L754.07 125.51zM840.68 175.51L883.98 200.51L883.98 250.51L840.68 275.51L797.38 250.51L797.38 200.51zM797.38 400.51L840.68 425.51L840.68 475.51L797.38 500.51L754.07 475.51L754.07 425.51zM883.98 -49.49L927.28 -24.49L927.28 25.51L883.98 50.51L840.68 25.51L840.68 -24.49zM883.98 100.51L927.28 125.51L927.28 175.51L883.98 200.51L840.68 175.51L840.68 125.51zM927.28 175.51L970.59 200.51L970.59 250.51L927.28 275.51L883.98 250.51L883.98 200.51zM883.98 250.51L927.28 275.51L927.28 325.51L883.98 350.51L840.68 325.51L840.68 275.51zM927.28 475.51L970.59 500.51L970.59 550.51L927.28 575.51L883.98 550.51L883.98 500.51zM970.59 -49.49L1013.89 -24.49L1013.89 25.51L970.59 50.51L927.28 25.51L927.28 -24.49zM1013.89 175.51L1057.19 200.51L1057.19 250.51L1013.89 275.51L970.59 250.51L970.59 200.51zM1013.89 475.51L1057.19 500.51L1057.19 550.51L1013.89 575.51L970.59 550.51L970.59 500.51zM1057.19 -49.49L1100.49 -24.49L1100.49 25.51L1057.19 50.51L1013.89 25.51L1013.89 -24.49zM1100.49 25.51L1143.8 50.51L1143.8 100.51L1100.49 125.51L1057.19 100.51L1057.19 50.51zM1057.19 400.51L1100.49 425.51L1100.49 475.51L1057.19 500.51L1013.89 475.51L1013.89 425.51zM1187.1 25.51L1230.4 50.51L1230.4 100.51L1187.1 125.51L1143.8 100.51L1143.8 50.51zM1143.8 100.51L1187.1 125.51L1187.1 175.51L1143.8 200.51L1100.49 175.51L1100.49 125.51zM1143.8 250.51L1187.1 275.51L1187.1 325.51L1143.8 350.51L1100.49 325.51L1100.49 275.51zM1230.4 -49.49L1273.7 -24.49L1273.7 25.51L1230.4 50.51L1187.1 25.51L1187.1 -24.49zM1273.7 25.51L1317.01 50.51L1317.01 100.51L1273.7 125.51L1230.4 100.51L1230.4 50.51zM1273.7 175.51L1317.01 200.51L1317.01 250.51L1273.7 275.51L1230.4 250.51L1230.4 200.51zM1273.7 325.51L1317.01 350.51L1317.01 400.51L1273.7 425.51L1230.4 400.51L1230.4 350.51zM1230.4 400.51L1273.7 425.51L1273.7 475.51L1230.4 500.51L1187.1 475.51L1187.1 425.51zM1317.01 -49.49L1360.31 -24.49L1360.31 25.51L1317.01 50.51L1273.7 25.51L1273.7 -24.49zM1360.31 25.51L1403.61 50.51L1403.61 100.51L1360.31 125.51L1317.01 100.51L1317.01 50.51zM1360.31 175.51L1403.61 200.51L1403.61 250.51L1360.31 275.51L1317.01 250.51L1317.01 200.51zM1317.01 400.51L1360.31 425.51L1360.31 475.51L1317.01 500.51L1273.7 475.51L1273.7 425.51zM1403.61 100.51L1446.91 125.51L1446.91 175.51L1403.61 200.51L1360.31 175.51L1360.31 125.51zM1446.91 175.51L1490.22 200.51L1490.22 250.51L1446.91 275.51L1403.61 250.51L1403.61 200.51z" stroke="url(&quot;#SvgjsRadialGradient1243&quot;)" stroke-width="2"></path></g><defs><mask id="SvgjsMask1242"><rect width="1440" height="560" fill="#ffffff"></rect></mask><radialGradient cx="720" cy="280" r="772.53" gradientUnits="userSpaceOnUse" id="SvgjsRadialGradient1243"><stop stop-color="rgba(255, 222, 89, 1)" offset="0"></stop><stop stop-color="rgba(92, 225, 230, 1)" offset="1"></stop></radialGradient></defs></svg>